<svg width="63" height="64" viewBox="0 0 63 64" fill="none" xmlns="http://www.w3.org/2000/svg">
<path d="M29.4229 31.5063L36.3521 38.4618C36.5916 38.7062 36.7251 39.0354 36.7233 39.3777C36.7216 39.72 36.5849 40.0478 36.3428 40.2898C36.1008 40.5319 35.773 40.6686 35.4307 40.6703C35.0884 40.6721 34.7592 40.5386 34.5148 40.299C34.1736 39.9841 33.8586 39.6691 33.5174 39.3279C31.2339 37.0444 28.9242 34.7347 26.6407 32.425C26.5191 32.3048 26.4226 32.1618 26.3567 32.0041C26.2908 31.8464 26.2569 31.6772 26.2569 31.5063C26.2569 31.3354 26.2908 31.1662 26.3567 31.0085C26.4226 30.8508 26.5191 30.7078 26.6407 30.5877L34.5148 22.7136C34.7592 22.474 35.0884 22.3406 35.4307 22.3423C35.773 22.344 36.1008 22.4808 36.3428 22.7228C36.5849 22.9649 36.7216 23.2926 36.7233 23.6349C36.7251 23.9772 36.5916 24.3064 36.3521 24.5509L29.4229 31.5063Z" fill="white"/>
<path d="M48.3915 54.9693H14.5986C12.8583 54.9693 11.1893 54.278 9.95872 53.0474C8.72816 51.8168 8.03683 50.1478 8.03683 48.4075V14.6198C8.03683 12.8796 8.72816 11.2106 9.95872 9.97999C11.1893 8.74943 12.8583 8.05811 14.5986 8.05811H48.3915C50.1318 8.05811 51.8008 8.74943 53.0314 9.97999C54.2619 11.2106 54.9533 12.8796 54.9533 14.6198V48.4075C54.9533 50.1478 54.2619 51.8168 53.0314 53.0474C51.8008 54.278 50.1318 54.9693 48.3915 54.9693ZM14.5986 10.6828C13.5544 10.6828 12.553 11.0976 11.8147 11.8359C11.0763 12.5743 10.6615 13.5757 10.6615 14.6198V48.4075C10.6615 49.4517 11.0763 50.4531 11.8147 51.1914C12.553 51.9298 13.5544 52.3446 14.5986 52.3446H48.3915C49.4357 52.3446 50.4371 51.9298 51.1754 51.1914C51.9138 50.4531 52.3286 49.4517 52.3286 48.4075V14.6198C52.3286 13.5757 51.9138 12.5743 51.1754 11.8359C50.4371 11.0976 49.4357 10.6828 48.3915 10.6828H14.5986Z" fill="white"/>
</svg>
