<svg width="63" height="64" viewBox="0 0 63 64" fill="none" xmlns="http://www.w3.org/2000/svg">
<path d="M33.5698 31.5054L26.6406 24.55C26.401 24.3055 26.2676 23.9763 26.2693 23.634C26.2711 23.2917 26.4078 22.964 26.6499 22.7219C26.8919 22.4799 27.2197 22.3431 27.562 22.3414C27.9043 22.3397 28.2334 22.4731 28.4779 22.7127C28.8191 23.0276 29.1341 23.3426 29.4753 23.6838C31.7588 25.9673 34.0685 28.277 36.352 30.5868C36.4736 30.7069 36.5701 30.8499 36.636 31.0076C36.7019 31.1653 36.7358 31.3345 36.7358 31.5054C36.7358 31.6763 36.7019 31.8455 36.636 32.0032C36.5701 32.1609 36.4736 32.3039 36.352 32.424L28.4779 40.2981C28.2334 40.5377 27.9043 40.6711 27.562 40.6694C27.2197 40.6677 26.8919 40.5309 26.6499 40.2889C26.4078 40.0469 26.2711 39.7191 26.2693 39.3768C26.2676 39.0345 26.401 38.7053 26.6406 38.4608L33.5698 31.5054Z" fill="#FCCD03"/>
<path d="M14.6011 8.04245L48.3941 8.04245C50.1344 8.04245 51.8034 8.73377 53.0339 9.96433C54.2645 11.1949 54.9558 12.8639 54.9558 14.6042L54.9558 48.3919C54.9558 50.1322 54.2645 51.8012 53.0339 53.0317C51.8034 54.2623 50.1344 54.9536 48.3941 54.9536L14.6011 54.9536C12.8608 54.9536 11.1918 54.2623 9.96128 53.0317C8.73071 51.8012 8.03939 50.1322 8.03939 48.3919L8.03939 14.6042C8.03939 12.8639 8.73071 11.1949 9.96127 9.96434C11.1918 8.73377 12.8608 8.04245 14.6011 8.04245ZM48.3941 52.3289C49.4382 52.3289 50.4396 51.9141 51.178 51.1758C51.9163 50.4374 52.3311 49.436 52.3311 48.3919L52.3311 14.6042C52.3311 13.56 51.9163 12.5586 51.178 11.8203C50.4396 11.0819 49.4382 10.6671 48.3941 10.6671L14.6011 10.6671C13.557 10.6671 12.5556 11.0819 11.8172 11.8203C11.0789 12.5586 10.6641 13.56 10.6641 14.6042L10.6641 48.3919C10.6641 49.436 11.0789 50.4375 11.8172 51.1758C12.5556 51.9141 13.557 52.3289 14.6011 52.3289L48.3941 52.3289Z" fill="#FCCD03"/>
</svg>
