<svg width="20" height="20" viewBox="0 0 20 20" fill="none" xmlns="http://www.w3.org/2000/svg">
<path d="M18.0333 13.6222L15.2111 13.3C14.8792 13.261 14.5429 13.2978 14.2273 13.4075C13.9117 13.5172 13.625 13.6969 13.3889 13.9333L11.3444 15.9778C8.19019 14.3736 5.62641 11.8098 4.02221 8.65555L6.07776 6.6C6.55554 6.12222 6.78887 5.45555 6.71109 4.77778L6.38887 1.97778C6.32588 1.43575 6.06575 0.935817 5.65802 0.573162C5.25029 0.210508 4.72344 0.0104614 4.17776 0.01111H2.25554C0.999984 0.01111 -0.0444603 1.05555 0.0333175 2.31111C0.622206 11.8 8.2111 19.3778 17.6889 19.9667C18.9444 20.0444 19.9889 19 19.9889 17.7444V15.8222C20 14.7 19.1555 13.7556 18.0333 13.6222Z" fill="#504D4D"/>
</svg>
